<svg width="154" height="48" viewBox="0 0 154 48" fill="none" xmlns="http://www.w3.org/2000/svg">
<path d="M33.9769 16.299L53.9213 41.684H14.0325L33.9769 16.299Z" fill="white"/>
<path d="M33.9769 0.315918L44.6449 15.8289H23.3089L33.9769 0.315918Z" fill="white"/>
<path d="M34.5125 8.77757L48.4272 28.5214H20.5978L34.5125 8.77757Z" fill="white"/>
<path d="M20.0519 16.299L39.9963 41.684H0.107422L20.0519 16.299Z" fill="#009900"/>
<path d="M20.0519 0.315918L30.7198 15.8289H9.38391L20.0519 0.315918Z" fill="#009900"/>
<path d="M20.5874 8.77757L34.5022 28.5214H6.67272L20.5874 8.77757Z" fill="#009900"/>
<path d="M27.55 16.299L47.4944 41.684H7.60552L27.55 16.299Z" fill="#5B595A"/>
<path d="M27.55 0.315918L38.2179 15.8289H16.882L27.55 0.315918Z" fill="#5B595A"/>
<path d="M28.0855 8.77757L42.0003 28.5214H14.1708L28.0855 8.77757Z" fill="#5B595A"/>
<path d="M70.6003 21.6756L68.1731 28.8633H66.6531L64.9328 23.4234L63.1065 28.8633L61.5983 28.8737L59.2771 21.6756H60.7028L62.3996 27.5292L64.2377 21.6756H65.7458L67.4543 27.4982L69.1628 21.6756H70.6003Z" fill="white"/>
<path d="M75.4433 28.9357C74.6814 28.9357 73.9783 28.7806 73.3342 28.4703C72.6979 28.1532 72.1913 27.7153 71.8142 27.1569C71.445 26.5915 71.2604 25.9572 71.2604 25.2539C71.2604 24.5507 71.445 23.9198 71.8142 23.3614C72.1913 22.8029 72.6979 22.3685 73.3342 22.0583C73.9783 21.7411 74.6814 21.5825 75.4433 21.5825C76.2131 21.5825 76.9161 21.7411 77.5524 22.0583C78.1965 22.3685 78.7032 22.8029 79.0724 23.3614C79.4416 23.9198 79.6262 24.5507 79.6262 25.2539C79.6262 25.9572 79.4416 26.5915 79.0724 27.1569C78.7032 27.7153 78.1965 28.1532 77.5524 28.4703C76.9161 28.7806 76.2131 28.9357 75.4433 28.9357ZM75.4433 27.9118C75.9853 27.9118 76.4684 27.805 76.8926 27.5912C77.3168 27.3706 77.6467 27.0604 77.8823 26.6605C78.1258 26.2537 78.2476 25.7848 78.2476 25.2539C78.2476 24.7231 78.1258 24.2577 77.8823 23.8578C77.6467 23.4579 77.3168 23.1511 76.8926 22.9373C76.4684 22.7236 75.9853 22.6167 75.4433 22.6167C74.9013 22.6167 74.4182 22.7236 73.994 22.9373C73.5698 23.1511 73.236 23.4579 72.9925 23.8578C72.7568 24.2577 72.639 24.7231 72.639 25.2539C72.639 25.7848 72.7568 26.2537 72.9925 26.6605C73.236 27.0604 73.5698 27.3706 73.994 27.5912C74.4182 27.805 74.9013 27.9118 75.4433 27.9118Z" fill="white"/>
<path d="M84.6831 28.9357C83.9211 28.9357 83.2181 28.7806 82.574 28.4703C81.9377 28.1532 81.431 27.7153 81.054 27.1569C80.6848 26.5915 80.5002 25.9572 80.5002 25.2539C80.5002 24.5507 80.6848 23.9198 81.054 23.3614C81.431 22.8029 81.9377 22.3685 82.574 22.0583C83.2181 21.7411 83.9211 21.5825 84.6831 21.5825C85.4529 21.5825 86.1559 21.7411 86.7922 22.0583C87.4363 22.3685 87.943 22.8029 88.3121 23.3614C88.6813 23.9198 88.8659 24.5507 88.8659 25.2539C88.8659 25.9572 88.6813 26.5915 88.3121 27.1569C87.943 27.7153 87.4363 28.1532 86.7922 28.4703C86.1559 28.7806 85.4529 28.9357 84.6831 28.9357ZM84.6831 27.9118C85.2251 27.9118 85.7082 27.805 86.1323 27.5912C86.5565 27.3706 86.8864 27.0604 87.1221 26.6605C87.3656 26.2537 87.4874 25.7848 87.4874 25.2539C87.4874 24.7231 87.3656 24.2577 87.1221 23.8578C86.8864 23.4579 86.5565 23.1511 86.1323 22.9373C85.7082 22.7236 85.2251 22.6167 84.6831 22.6167C84.1411 22.6167 83.658 22.7236 83.2338 22.9373C82.8096 23.1511 82.4758 23.4579 82.2323 23.8578C81.9966 24.2577 81.8788 24.7231 81.8788 25.2539C81.8788 25.7848 81.9966 26.2537 82.2323 26.6605C82.4758 27.0604 82.8096 27.3706 83.2338 27.5912C83.658 27.805 84.1411 27.9118 84.6831 27.9118Z" fill="white"/>
<path d="M92.8624 21.6756C93.7343 21.6756 94.4963 21.8238 95.1482 22.1203C95.8081 22.4099 96.3147 22.8305 96.6682 23.382C97.0296 23.9267 97.2102 24.5645 97.2102 25.2953C97.2102 26.0262 97.0296 26.6605 96.6682 27.1982C96.3147 27.736 95.8081 28.1497 95.1482 28.4393C94.4963 28.722 93.7343 28.8633 92.8624 28.8633H90.1877V21.6756H92.8624ZM92.8624 27.9015C93.8207 27.9015 94.5552 27.674 95.0658 27.2189C95.5763 26.7639 95.8316 26.1227 95.8316 25.2953C95.8316 24.4611 95.5763 23.8095 95.0658 23.3407C94.5552 22.8718 93.8207 22.6374 92.8624 22.6374H91.531V27.9015H92.8624Z" fill="white"/>
<path d="M99.0835 28.9357C98.84 28.9357 98.6357 28.8633 98.4708 28.7185C98.3058 28.5737 98.2234 28.3945 98.2234 28.1807C98.2234 27.967 98.3058 27.7877 98.4708 27.643C98.6357 27.4982 98.84 27.4258 99.0835 27.4258C99.3191 27.4258 99.5195 27.4982 99.6844 27.643C99.8494 27.7877 99.9318 27.967 99.9318 28.1807C99.9318 28.3945 99.8494 28.5737 99.6844 28.7185C99.5195 28.8633 99.3191 28.9357 99.0835 28.9357Z" fill="white"/>
<path d="M102.727 21.6756V28.8633H101.384V21.6756H102.727Z" fill="white"/>
<path d="M111.218 28.8633H109.875L105.834 23.4958V28.8633H104.49V21.6653H105.834L109.875 27.0224V21.6653H111.218V28.8633Z" fill="white"/>
<path d="M113.524 28.9357C113.281 28.9357 113.076 28.8633 112.912 28.7185C112.747 28.5737 112.664 28.3945 112.664 28.1807C112.664 27.967 112.747 27.7877 112.912 27.643C113.076 27.4982 113.281 27.4258 113.524 27.4258C113.76 27.4258 113.96 27.4982 114.125 27.643C114.29 27.7877 114.373 27.967 114.373 28.1807C114.373 28.3945 114.29 28.5737 114.125 28.7185C113.96 28.8633 113.76 28.9357 113.524 28.9357Z" fill="white"/>
<path d="M122.882 21.6756L119.807 28.8633H118.252L115.165 21.6756H116.602L119.029 27.6533L121.468 21.6756H122.882Z" fill="white"/>
<path d="M125.349 21.6756V28.8633H124.006V21.6756H125.349Z" fill="white"/>
<path d="M129.811 28.9357C129.261 28.9357 128.766 28.853 128.326 28.6875C127.886 28.5151 127.54 28.2738 127.289 27.9636C127.038 27.6533 126.912 27.2913 126.912 26.8776H128.349C128.381 27.1879 128.518 27.443 128.762 27.643C129.013 27.8429 129.363 27.9429 129.811 27.9429C130.274 27.9429 130.635 27.8463 130.895 27.6533C131.154 27.4534 131.283 27.1982 131.283 26.888C131.283 26.6467 131.201 26.4502 131.036 26.2985C130.879 26.1468 130.679 26.0296 130.435 25.9469C130.199 25.8641 129.869 25.7745 129.445 25.678C128.911 25.5539 128.475 25.4298 128.137 25.3057C127.807 25.1747 127.525 24.9747 127.289 24.7058C127.053 24.4369 126.936 24.0784 126.936 23.6302C126.936 23.2166 127.053 22.8546 127.289 22.5443C127.525 22.2341 127.855 21.9962 128.279 21.8307C128.703 21.6653 129.194 21.5825 129.752 21.5825C130.545 21.5825 131.193 21.7583 131.696 22.11C132.206 22.4547 132.489 22.9304 132.544 23.5372H131.059C131.036 23.2752 130.895 23.0511 130.635 22.8649C130.376 22.6788 130.034 22.5857 129.61 22.5857C129.225 22.5857 128.911 22.6719 128.668 22.8443C128.424 23.0166 128.302 23.2648 128.302 23.5889C128.302 23.8095 128.377 23.9922 128.526 24.137C128.683 24.2749 128.88 24.3852 129.115 24.468C129.351 24.5507 129.673 24.6403 130.082 24.7368C130.624 24.8678 131.063 24.9988 131.401 25.1298C131.747 25.2608 132.037 25.4642 132.273 25.74C132.517 26.0089 132.638 26.3709 132.638 26.8259C132.638 27.1914 132.524 27.5361 132.297 27.8601C132.077 28.1842 131.751 28.4462 131.319 28.6461C130.895 28.8392 130.392 28.9357 129.811 28.9357Z" fill="white"/>
<path d="M135.567 21.6756V28.8633H134.223V21.6756H135.567Z" fill="white"/>
<path d="M141.065 28.9357C140.303 28.9357 139.6 28.7806 138.956 28.4703C138.32 28.1532 137.813 27.7153 137.436 27.1569C137.067 26.5915 136.882 25.9572 136.882 25.2539C136.882 24.5507 137.067 23.9198 137.436 23.3614C137.813 22.8029 138.32 22.3685 138.956 22.0583C139.6 21.7411 140.303 21.5825 141.065 21.5825C141.835 21.5825 142.538 21.7411 143.174 22.0583C143.818 22.3685 144.325 22.8029 144.694 23.3614C145.064 23.9198 145.248 24.5507 145.248 25.2539C145.248 25.9572 145.064 26.5915 144.694 27.1569C144.325 27.7153 143.818 28.1532 143.174 28.4703C142.538 28.7806 141.835 28.9357 141.065 28.9357ZM141.065 27.9118C141.607 27.9118 142.09 27.805 142.515 27.5912C142.939 27.3706 143.269 27.0604 143.504 26.6605C143.748 26.2537 143.87 25.7848 143.87 25.2539C143.87 24.7231 143.748 24.2577 143.504 23.8578C143.269 23.4579 142.939 23.1511 142.515 22.9373C142.09 22.7236 141.607 22.6167 141.065 22.6167C140.523 22.6167 140.04 22.7236 139.616 22.9373C139.192 23.1511 138.858 23.4579 138.614 23.8578C138.379 24.2577 138.261 24.7231 138.261 25.2539C138.261 25.7848 138.379 26.2537 138.614 26.6605C138.858 27.0604 139.192 27.3706 139.616 27.5912C140.04 27.805 140.523 27.9118 141.065 27.9118Z" fill="white"/>
<path d="M153.298 28.8633H151.955L147.913 23.4958V28.8633H146.57V21.6653H147.913L151.955 27.0224V21.6653H153.298V28.8633Z" fill="white"/>
<path d="M59.4505 40.1455V34.6754H63.0565V35.1241H60.0196V37.1834H62.7735V37.6321H60.0196V40.1455H59.4505Z" fill="white"/>
<path d="M65.8326 40.231C65.4289 40.231 65.0718 40.1411 64.7614 39.9612C64.4531 39.7814 64.2116 39.533 64.0372 39.216C63.8627 38.8973 63.7755 38.5296 63.7755 38.1129C63.7755 37.6927 63.8627 37.3232 64.0372 37.0044C64.2116 36.6839 64.4531 36.4346 64.7614 36.2566C65.0718 36.0767 65.4289 35.9868 65.8326 35.9868C66.2363 35.9868 66.5923 36.0767 66.9007 36.2566C67.2091 36.4364 67.4505 36.6857 67.6249 37.0044C67.8014 37.3232 67.8897 37.6927 67.8897 38.1129C67.8897 38.5296 67.8025 38.8973 67.628 39.216C67.4535 39.533 67.2111 39.7814 66.9007 39.9612C66.5923 40.1411 66.2363 40.231 65.8326 40.231ZM65.8326 39.7956C66.1572 39.7956 66.4321 39.7191 66.6572 39.5659C66.8824 39.4128 67.0528 39.2089 67.1685 38.9543C67.2861 38.6996 67.345 38.4192 67.345 38.1129C67.345 37.8066 67.2861 37.5253 67.1685 37.2689C67.0528 37.0125 66.8824 36.8068 66.6572 36.6519C66.4321 36.497 66.1572 36.4195 65.8326 36.4195C65.51 36.4195 65.2351 36.497 65.0079 36.6519C64.7827 36.8068 64.6113 37.0125 64.4936 37.2689C64.378 37.5253 64.3202 37.8066 64.3202 38.1129C64.3202 38.4192 64.378 38.6996 64.4936 38.9543C64.6113 39.2089 64.7827 39.4128 65.0079 39.5659C65.2331 39.7191 65.508 39.7956 65.8326 39.7956Z" fill="white"/>
<path d="M69.0788 40.1455V36.0429H69.6052V36.6732H69.6448C69.7381 36.4667 69.9004 36.3002 70.1317 36.1738C70.365 36.0456 70.6287 35.9815 70.9229 35.9815C70.9675 35.9815 71.0172 35.9824 71.072 35.9841C71.1267 35.9859 71.1724 35.9877 71.2089 35.9895V36.4729C71.1846 36.4694 71.142 36.464 71.0811 36.4569C71.0202 36.4498 70.9543 36.4462 70.8833 36.4462C70.6398 36.4462 70.4228 36.4916 70.2321 36.5824C70.0434 36.6715 69.8943 36.7952 69.7848 36.9537C69.6752 37.1122 69.6204 37.2929 69.6204 37.4959V40.1455H69.0788Z" fill="white"/>
<path d="M76.4665 36.0429V36.4569H74.169V36.0429H76.4665ZM74.8872 40.1455V35.4419C74.8872 35.2211 74.945 35.035 75.0606 34.8837C75.1783 34.7323 75.3315 34.6175 75.5201 34.5391C75.7088 34.4608 75.9087 34.4216 76.1196 34.4216C76.2616 34.4216 76.3793 34.4323 76.4726 34.4537C76.568 34.4733 76.643 34.4928 76.6978 34.5124L76.5396 34.9291C76.499 34.9184 76.4493 34.906 76.3905 34.8917C76.3316 34.8775 76.2576 34.8703 76.1683 34.8703C75.933 34.8703 75.7514 34.9282 75.6236 35.044C75.4958 35.1597 75.4319 35.3253 75.4319 35.5408L75.4289 40.1455H74.8872Z" fill="white"/>
<path d="M79.1718 40.231C78.7681 40.231 78.4111 40.1411 78.1007 39.9612C77.7923 39.7814 77.5509 39.533 77.3764 39.216C77.202 38.8973 77.1147 38.5296 77.1147 38.1129C77.1147 37.6927 77.202 37.3232 77.3764 37.0044C77.5509 36.6839 77.7923 36.4346 78.1007 36.2566C78.4111 36.0767 78.7681 35.9868 79.1718 35.9868C79.5755 35.9868 79.9316 36.0767 80.2399 36.2566C80.5483 36.4364 80.7897 36.6857 80.9642 37.0044C81.1407 37.3232 81.2289 37.6927 81.2289 38.1129C81.2289 38.5296 81.1417 38.8973 80.9672 39.216C80.7928 39.533 80.5503 39.7814 80.2399 39.9612C79.9316 40.1411 79.5755 40.231 79.1718 40.231ZM79.1718 39.7956C79.4964 39.7956 79.7713 39.7191 79.9965 39.5659C80.2217 39.4128 80.3921 39.2089 80.5077 38.9543C80.6254 38.6996 80.6842 38.4192 80.6842 38.1129C80.6842 37.8066 80.6254 37.5253 80.5077 37.2689C80.3921 37.0125 80.2217 36.8068 79.9965 36.6519C79.7713 36.497 79.4964 36.4195 79.1718 36.4195C78.8493 36.4195 78.5744 36.497 78.3472 36.6519C78.122 36.8068 77.9505 37.0125 77.8329 37.2689C77.7172 37.5253 77.6594 37.8066 77.6594 38.1129C77.6594 38.4192 77.7172 38.6996 77.8329 38.9543C77.9505 39.2089 78.122 39.4128 78.3472 39.5659C78.5723 39.7191 78.8472 39.7956 79.1718 39.7956Z" fill="white"/>
<path d="M82.418 40.1455V36.0429H82.9445V36.6732H82.984C83.0773 36.4667 83.2396 36.3002 83.4709 36.1738C83.7042 36.0456 83.9679 35.9815 84.2621 35.9815C84.3067 35.9815 84.3564 35.9824 84.4112 35.9841C84.466 35.9859 84.5116 35.9877 84.5481 35.9895V36.4729C84.5238 36.4694 84.4812 36.464 84.4203 36.4569C84.3595 36.4498 84.2935 36.4462 84.2225 36.4462C83.9791 36.4462 83.762 36.4916 83.5713 36.5824C83.3827 36.6715 83.2335 36.7952 83.124 36.9537C83.0144 37.1122 82.9597 37.2929 82.9597 37.4959V40.1455H82.418Z" fill="white"/>
<path d="M87.2199 40.231C86.7838 40.231 86.4064 40.142 86.0879 39.9639C85.7694 39.784 85.5229 39.5356 85.3485 39.2187C85.176 38.9 85.0898 38.5331 85.0898 38.1182C85.0898 37.7051 85.176 37.3383 85.3485 37.0178C85.5229 36.6955 85.7633 36.4435 86.0697 36.2619C86.378 36.0785 86.7341 35.9868 87.1378 35.9868C87.3914 35.9868 87.6358 36.0278 87.8712 36.1097C88.1065 36.1898 88.3175 36.3136 88.5041 36.4809C88.6928 36.6465 88.8419 36.8558 88.9514 37.1086C89.061 37.3597 89.1158 37.6571 89.1158 38.0007V38.2358H85.4641V37.8164H88.5619C88.5619 37.5529 88.5011 37.3161 88.3794 37.1059C88.2597 36.8941 88.0923 36.7267 87.8773 36.6038C87.6642 36.4809 87.4178 36.4195 87.1378 36.4195C86.8416 36.4195 86.5809 36.489 86.3557 36.6278C86.1305 36.7667 85.954 36.9501 85.8262 37.1781C85.7005 37.406 85.6366 37.6553 85.6345 37.9259V38.177C85.6345 38.5029 85.6984 38.7878 85.8262 39.0317C85.9561 39.2739 86.1397 39.4618 86.377 39.5953C86.6144 39.7288 86.8954 39.7956 87.2199 39.7956C87.4411 39.7956 87.6348 39.7654 87.8012 39.7048C87.9696 39.6443 88.1105 39.5632 88.2242 39.4617C88.3398 39.3585 88.427 39.2454 88.4859 39.1225L89.0001 39.2694C88.9291 39.4422 88.8125 39.6015 88.6502 39.7475C88.4899 39.8936 88.2891 40.0111 88.0477 40.1001C87.8083 40.1874 87.5324 40.231 87.2199 40.231Z" fill="white"/>
<path d="M93.4499 36.943L92.9538 37.0659C92.9052 36.943 92.8362 36.8317 92.7469 36.732C92.6576 36.6323 92.541 36.5531 92.397 36.4943C92.2549 36.4355 92.0785 36.4062 91.8675 36.4062C91.551 36.4062 91.2913 36.472 91.0884 36.6038C90.8856 36.7356 90.7841 36.9056 90.7841 37.114C90.7841 37.2902 90.8531 37.4336 90.9911 37.544C91.131 37.6526 91.3461 37.739 91.6362 37.8031L92.3422 37.9553C92.7337 38.039 93.0269 38.1717 93.2216 38.3533C93.4184 38.5349 93.5168 38.7628 93.5168 39.0371C93.5168 39.2685 93.4438 39.4742 93.2977 39.6541C93.1516 39.8339 92.9478 39.9755 92.6861 40.0787C92.4264 40.1802 92.1251 40.231 91.7823 40.231C91.3258 40.231 90.9495 40.1411 90.6533 39.9612C90.3571 39.7796 90.1674 39.5178 90.0842 39.176L90.6046 39.0638C90.6715 39.3077 90.8024 39.492 90.9971 39.6167C91.1939 39.7413 91.4526 39.8036 91.7731 39.8036C92.1322 39.8036 92.4193 39.7333 92.6343 39.5926C92.8493 39.4502 92.9569 39.2721 92.9569 39.0584C92.9569 38.8928 92.894 38.7539 92.7682 38.6418C92.6424 38.5278 92.4517 38.4441 92.1961 38.3907L91.4323 38.2304C91.0266 38.145 90.7263 38.0096 90.5316 37.8244C90.3368 37.6393 90.2394 37.4095 90.2394 37.1353C90.2394 36.9092 90.3094 36.7106 90.4494 36.5397C90.5894 36.367 90.7821 36.2316 91.0276 36.1337C91.273 36.0358 91.553 35.9868 91.8675 35.9868C92.2955 35.9868 92.6374 36.0723 92.893 36.2432C93.1506 36.4124 93.3362 36.6456 93.4499 36.943Z" fill="white"/>
<path d="M96.5439 36.0429V36.4569H94.3133V36.0429H96.5439ZM95.0102 35.06H95.5549V39.0745C95.5549 39.2454 95.5884 39.3798 95.6553 39.4778C95.7223 39.5739 95.8095 39.6425 95.917 39.6834C96.0245 39.7226 96.1392 39.7422 96.2609 39.7422C96.3319 39.7422 96.3927 39.7386 96.4435 39.7315C96.4942 39.7226 96.5388 39.7137 96.5774 39.7048L96.693 40.1348C96.6402 40.1526 96.5753 40.1687 96.4982 40.1829C96.4211 40.1989 96.3258 40.2069 96.2122 40.2069C96.0134 40.2069 95.8217 40.1687 95.637 40.0921C95.4545 40.0155 95.3043 39.9016 95.1867 39.7502C95.069 39.5989 95.0102 39.411 95.0102 39.1866V35.06Z" fill="white"/>
<path d="M100.184 41.684V36.0429H100.711V36.8255H100.774C100.839 36.7026 100.929 36.5771 101.042 36.4489C101.156 36.3189 101.306 36.2094 101.493 36.1204C101.681 36.0313 101.919 35.9868 102.205 35.9868C102.59 35.9868 102.927 36.0758 103.215 36.2539C103.505 36.4302 103.73 36.6777 103.891 36.9964C104.053 37.3134 104.134 37.6829 104.134 38.1049C104.134 38.5287 104.053 38.9 103.891 39.2187C103.73 39.5374 103.505 39.7858 103.215 39.9639C102.927 40.142 102.592 40.231 102.211 40.231C101.929 40.231 101.692 40.1865 101.502 40.0974C101.313 40.0084 101.16 39.8989 101.042 39.7689C100.927 39.6371 100.837 39.5089 100.774 39.3843H100.726V41.684H100.184ZM100.72 38.0969C100.72 38.4281 100.776 38.7219 100.887 38.9783C101.001 39.2329 101.163 39.4333 101.374 39.5793C101.587 39.7235 101.845 39.7956 102.147 39.7956C102.457 39.7956 102.719 39.7208 102.932 39.5713C103.147 39.4199 103.31 39.216 103.422 38.9596C103.536 38.7032 103.592 38.4156 103.592 38.0969C103.592 37.7817 103.537 37.4977 103.425 37.2448C103.315 36.992 103.153 36.7917 102.938 36.6439C102.723 36.4943 102.459 36.4195 102.147 36.4195C101.843 36.4195 101.584 36.4916 101.371 36.6359C101.158 36.7783 100.996 36.976 100.884 37.2288C100.774 37.4799 100.72 37.7692 100.72 38.0969Z" fill="white"/>
<path d="M105.322 40.1455V36.0429H105.849V36.6732H105.888C105.982 36.4667 106.144 36.3002 106.375 36.1738C106.609 36.0456 106.872 35.9815 107.166 35.9815C107.211 35.9815 107.261 35.9824 107.316 35.9841C107.37 35.9859 107.416 35.9877 107.452 35.9895V36.4729C107.428 36.4694 107.386 36.464 107.325 36.4569C107.264 36.4498 107.198 36.4462 107.127 36.4462C106.883 36.4462 106.666 36.4916 106.476 36.5824C106.287 36.6715 106.138 36.7952 106.028 36.9537C105.919 37.1122 105.864 37.2929 105.864 37.4959V40.1455H105.322Z" fill="white"/>
<path d="M110.051 40.231C109.648 40.231 109.29 40.1411 108.98 39.9612C108.672 39.7814 108.43 39.533 108.256 39.216C108.081 38.8973 107.994 38.5296 107.994 38.1129C107.994 37.6927 108.081 37.3232 108.256 37.0044C108.43 36.6839 108.672 36.4346 108.98 36.2566C109.29 36.0767 109.648 35.9868 110.051 35.9868C110.455 35.9868 110.811 36.0767 111.119 36.2566C111.428 36.4364 111.669 36.6857 111.844 37.0044C112.02 37.3232 112.108 37.6927 112.108 38.1129C112.108 38.5296 112.021 38.8973 111.847 39.216C111.672 39.533 111.43 39.7814 111.119 39.9612C110.811 40.1411 110.455 40.231 110.051 40.231ZM110.051 39.7956C110.376 39.7956 110.651 39.7191 110.876 39.5659C111.101 39.4128 111.272 39.2089 111.387 38.9543C111.505 38.6996 111.564 38.4192 111.564 38.1129C111.564 37.8066 111.505 37.5253 111.387 37.2689C111.272 37.0125 111.101 36.8068 110.876 36.6519C110.651 36.497 110.376 36.4195 110.051 36.4195C109.729 36.4195 109.454 36.497 109.227 36.6519C109.001 36.8068 108.83 37.0125 108.712 37.2689C108.597 37.5253 108.539 37.8066 108.539 38.1129C108.539 38.4192 108.597 38.6996 108.712 38.9543C108.83 39.2089 109.001 39.4128 109.227 39.5659C109.452 39.7191 109.727 39.7956 110.051 39.7956Z" fill="white"/>
<path d="M115.221 36.0429V36.4569H112.923V36.0429H115.221ZM113.641 40.1455V35.4419C113.641 35.2211 113.699 35.035 113.815 34.8837C113.932 34.7323 114.086 34.6175 114.274 34.5391C114.463 34.4608 114.663 34.4216 114.874 34.4216C115.016 34.4216 115.133 34.4323 115.227 34.4537C115.322 34.4733 115.397 34.4928 115.452 34.5124L115.294 34.9291C115.253 34.9184 115.203 34.906 115.145 34.8917C115.086 34.8775 115.012 34.8703 114.922 34.8703C114.687 34.8703 114.506 34.9282 114.378 35.044C114.25 35.1597 114.186 35.3253 114.186 35.5408L114.183 40.1455H113.641Z" fill="white"/>
<path d="M117.999 40.231C117.563 40.231 117.185 40.142 116.867 39.9639C116.548 39.784 116.302 39.5356 116.127 39.2187C115.955 38.9 115.869 38.5331 115.869 38.1182C115.869 37.7051 115.955 37.3383 116.127 37.0178C116.302 36.6955 116.542 36.4435 116.849 36.2619C117.157 36.0785 117.513 35.9868 117.917 35.9868C118.17 35.9868 118.415 36.0278 118.65 36.1097C118.886 36.1898 119.096 36.3136 119.283 36.4809C119.472 36.6465 119.621 36.8558 119.73 37.1086C119.84 37.3597 119.895 37.6571 119.895 38.0007V38.2358H116.243V37.8164H119.341C119.341 37.5529 119.28 37.3161 119.158 37.1059C119.039 36.8941 118.871 36.7267 118.656 36.6038C118.443 36.4809 118.197 36.4195 117.917 36.4195C117.621 36.4195 117.36 36.489 117.135 36.6278C116.91 36.7667 116.733 36.9501 116.605 37.1781C116.479 37.406 116.416 37.6553 116.414 37.9259V38.177C116.414 38.5029 116.477 38.7878 116.605 39.0317C116.735 39.2739 116.919 39.4618 117.156 39.5953C117.393 39.7288 117.674 39.7956 117.999 39.7956C118.22 39.7956 118.414 39.7654 118.58 39.7048C118.749 39.6443 118.89 39.5632 119.003 39.4617C119.119 39.3585 119.206 39.2454 119.265 39.1225L119.779 39.2694C119.708 39.4422 119.591 39.6015 119.429 39.7475C119.269 39.8936 119.068 40.0111 118.827 40.1001C118.587 40.1874 118.311 40.231 117.999 40.231Z" fill="white"/>
<path d="M124.229 36.943L123.733 37.0659C123.684 36.943 123.615 36.8317 123.526 36.732C123.437 36.6323 123.32 36.5531 123.176 36.4943C123.034 36.4355 122.857 36.4062 122.646 36.4062C122.33 36.4062 122.07 36.472 121.867 36.6038C121.665 36.7356 121.563 36.9056 121.563 37.114C121.563 37.2902 121.632 37.4336 121.77 37.544C121.91 37.6526 122.125 37.739 122.415 37.8031L123.121 37.9553C123.513 38.039 123.806 38.1717 124.001 38.3533C124.197 38.5349 124.296 38.7628 124.296 39.0371C124.296 39.2685 124.223 39.4742 124.077 39.6541C123.931 39.8339 123.727 39.9755 123.465 40.0787C123.205 40.1802 122.904 40.231 122.561 40.231C122.105 40.231 121.728 40.1411 121.432 39.9612C121.136 39.7796 120.946 39.5178 120.863 39.176L121.384 39.0638C121.451 39.3077 121.581 39.492 121.776 39.6167C121.973 39.7413 122.232 39.8036 122.552 39.8036C122.911 39.8036 123.198 39.7333 123.413 39.5926C123.628 39.4502 123.736 39.2721 123.736 39.0584C123.736 38.8928 123.673 38.7539 123.547 38.6418C123.421 38.5278 123.231 38.4441 122.975 38.3907L122.211 38.2304C121.806 38.145 121.505 38.0096 121.311 37.8244C121.116 37.6393 121.018 37.4095 121.018 37.1353C121.018 36.9092 121.088 36.7106 121.228 36.5397C121.368 36.367 121.561 36.2316 121.807 36.1337C122.052 36.0358 122.332 35.9868 122.646 35.9868C123.075 35.9868 123.416 36.0723 123.672 36.2432C123.93 36.4124 124.115 36.6456 124.229 36.943Z" fill="white"/>
<path d="M128.622 36.943L128.126 37.0659C128.078 36.943 128.009 36.8317 127.919 36.732C127.83 36.6323 127.713 36.5531 127.569 36.4943C127.427 36.4355 127.251 36.4062 127.04 36.4062C126.723 36.4062 126.464 36.472 126.261 36.6038C126.058 36.7356 125.957 36.9056 125.957 37.114C125.957 37.2902 126.026 37.4336 126.163 37.544C126.303 37.6526 126.519 37.739 126.809 37.8031L127.515 37.9553C127.906 38.039 128.199 38.1717 128.394 38.3533C128.591 38.5349 128.689 38.7628 128.689 39.0371C128.689 39.2685 128.616 39.4742 128.47 39.6541C128.324 39.8339 128.12 39.9755 127.858 40.0787C127.599 40.1802 127.298 40.231 126.955 40.231C126.498 40.231 126.122 40.1411 125.826 39.9612C125.53 39.7796 125.34 39.5178 125.257 39.176L125.777 39.0638C125.844 39.3077 125.975 39.492 126.17 39.6167C126.366 39.7413 126.625 39.8036 126.946 39.8036C127.305 39.8036 127.592 39.7333 127.807 39.5926C128.022 39.4502 128.129 39.2721 128.129 39.0584C128.129 38.8928 128.066 38.7539 127.941 38.6418C127.815 38.5278 127.624 38.4441 127.369 38.3907L126.605 38.2304C126.199 38.145 125.899 38.0096 125.704 37.8244C125.509 37.6393 125.412 37.4095 125.412 37.1353C125.412 36.9092 125.482 36.7106 125.622 36.5397C125.762 36.367 125.955 36.2316 126.2 36.1337C126.445 36.0358 126.725 35.9868 127.04 35.9868C127.468 35.9868 127.81 36.0723 128.065 36.2432C128.323 36.4124 128.509 36.6456 128.622 36.943Z" fill="white"/>
<path d="M129.881 40.1455V36.0429H130.426V40.1455H129.881ZM130.158 35.3378C130.047 35.3378 129.951 35.3048 129.872 35.2389C129.793 35.1713 129.754 35.0902 129.754 34.9959C129.754 34.9015 129.793 34.8214 129.872 34.7555C129.951 34.6878 130.047 34.654 130.158 34.654C130.27 34.654 130.365 34.6878 130.444 34.7555C130.523 34.8214 130.563 34.9015 130.563 34.9959C130.563 35.0902 130.523 35.1713 130.444 35.2389C130.365 35.3048 130.27 35.3378 130.158 35.3378Z" fill="white"/>
<path d="M133.675 40.231C133.272 40.231 132.915 40.1411 132.604 39.9612C132.296 39.7814 132.054 39.533 131.88 39.216C131.705 38.8973 131.618 38.5296 131.618 38.1129C131.618 37.6927 131.705 37.3232 131.88 37.0044C132.054 36.6839 132.296 36.4346 132.604 36.2566C132.915 36.0767 133.272 35.9868 133.675 35.9868C134.079 35.9868 134.435 36.0767 134.743 36.2566C135.052 36.4364 135.293 36.6857 135.468 37.0044C135.644 37.3232 135.732 37.6927 135.732 38.1129C135.732 38.5296 135.645 38.8973 135.471 39.216C135.296 39.533 135.054 39.7814 134.743 39.9612C134.435 40.1411 134.079 40.231 133.675 40.231ZM133.675 39.7956C134 39.7956 134.275 39.7191 134.5 39.5659C134.725 39.4128 134.896 39.2089 135.011 38.9543C135.129 38.6996 135.188 38.4192 135.188 38.1129C135.188 37.8066 135.129 37.5253 135.011 37.2689C134.896 37.0125 134.725 36.8068 134.5 36.6519C134.275 36.497 134 36.4195 133.675 36.4195C133.353 36.4195 133.078 36.497 132.851 36.6519C132.625 36.8068 132.454 37.0125 132.336 37.2689C132.221 37.5253 132.163 37.8066 132.163 38.1129C132.163 38.4192 132.221 38.6996 132.336 38.9543C132.454 39.2089 132.625 39.4128 132.851 39.5659C133.076 39.7191 133.351 39.7956 133.675 39.7956Z" fill="white"/>
<path d="M137.463 37.5814V40.1455H136.921V36.0429H137.448V36.6866H137.497C137.606 36.4765 137.777 36.3082 138.008 36.1818C138.241 36.0536 138.529 35.9895 138.872 35.9895C139.187 35.9895 139.462 36.0473 139.7 36.1631C139.939 36.2771 140.125 36.4453 140.257 36.6679C140.391 36.8905 140.457 37.1638 140.457 37.4879V40.1455H139.916V37.5173C139.916 37.1807 139.808 36.9145 139.593 36.7187C139.38 36.5228 139.094 36.4248 138.735 36.4248C138.49 36.4248 138.272 36.4711 138.081 36.5637C137.89 36.6563 137.739 36.7899 137.627 36.9644C137.518 37.1371 137.463 37.3428 137.463 37.5814Z" fill="white"/>
<path d="M143.189 40.239C142.907 40.239 142.65 40.1909 142.416 40.0948C142.183 39.9968 141.998 39.8562 141.86 39.6728C141.722 39.4876 141.653 39.2632 141.653 38.9997C141.653 38.7967 141.696 38.6257 141.783 38.4868C141.871 38.3479 141.994 38.234 142.155 38.145C142.315 38.0559 142.505 37.9856 142.724 37.9339C142.943 37.8823 143.184 37.8422 143.448 37.8138C143.71 37.7853 143.931 37.7603 144.111 37.739C144.294 37.7176 144.433 37.6838 144.528 37.6375C144.624 37.5912 144.671 37.5164 144.671 37.4131V37.317C144.671 37.0374 144.576 36.8175 144.385 36.6572C144.197 36.4952 143.925 36.4142 143.57 36.4142C143.233 36.4142 142.958 36.4792 142.745 36.6091C142.534 36.7391 142.386 36.8923 142.301 37.0686L141.787 36.9056C141.892 36.6813 142.038 36.5023 142.225 36.3688C142.411 36.2334 142.62 36.1364 142.852 36.0776C143.083 36.0171 143.317 35.9868 143.555 35.9868C143.733 35.9868 143.919 36.0073 144.111 36.0482C144.306 36.0892 144.487 36.1604 144.653 36.2619C144.819 36.3616 144.954 36.5014 145.058 36.6813C145.161 36.8593 145.213 37.0855 145.213 37.3597V40.1455H144.671V39.4965H144.638C144.573 39.6175 144.477 39.7351 144.349 39.849C144.221 39.963 144.061 40.0565 143.868 40.1295C143.675 40.2025 143.449 40.239 143.189 40.239ZM143.262 39.8036C143.551 39.8036 143.8 39.7475 144.011 39.6354C144.222 39.5232 144.384 39.3745 144.498 39.1893C144.614 39.0023 144.671 38.7967 144.671 38.5723V37.9794C144.631 38.0132 144.563 38.0435 144.467 38.0702C144.374 38.0969 144.266 38.1209 144.142 38.1423C144.02 38.1619 143.898 38.1788 143.777 38.193C143.655 38.2073 143.545 38.2197 143.448 38.2304C143.184 38.2589 142.959 38.3034 142.773 38.364C142.586 38.4245 142.443 38.5082 142.343 38.615C142.244 38.7201 142.194 38.8554 142.194 39.021C142.194 39.2703 142.296 39.4635 142.499 39.6006C142.702 39.736 142.956 39.8036 143.262 39.8036Z" fill="white"/>
<path d="M147.196 34.6754V40.1455H146.654V34.6754H147.196Z" fill="white"/>
<path d="M151.769 36.943L151.273 37.0659C151.225 36.943 151.156 36.8317 151.066 36.732C150.977 36.6323 150.86 36.5531 150.716 36.4943C150.574 36.4355 150.398 36.4062 150.187 36.4062C149.87 36.4062 149.611 36.472 149.408 36.6038C149.205 36.7356 149.104 36.9056 149.104 37.114C149.104 37.2902 149.173 37.4336 149.311 37.544C149.451 37.6526 149.666 37.739 149.956 37.8031L150.662 37.9553C151.053 38.039 151.346 38.1717 151.541 38.3533C151.738 38.5349 151.836 38.7628 151.836 39.0371C151.836 39.2685 151.763 39.4742 151.617 39.6541C151.471 39.8339 151.267 39.9755 151.005 40.0787C150.746 40.1802 150.445 40.231 150.102 40.231C149.645 40.231 149.269 40.1411 148.973 39.9612C148.677 39.7796 148.487 39.5178 148.404 39.176L148.924 39.0638C148.991 39.3077 149.122 39.492 149.317 39.6167C149.513 39.7413 149.772 39.8036 150.093 39.8036C150.452 39.8036 150.739 39.7333 150.954 39.5926C151.169 39.4502 151.276 39.2721 151.276 39.0584C151.276 38.8928 151.213 38.7539 151.088 38.6418C150.962 38.5278 150.771 38.4441 150.516 38.3907L149.752 38.2304C149.346 38.145 149.046 38.0096 148.851 37.8244C148.656 37.6393 148.559 37.4095 148.559 37.1353C148.559 36.9092 148.629 36.7106 148.769 36.5397C148.909 36.367 149.102 36.2316 149.347 36.1337C149.593 36.0358 149.872 35.9868 150.187 35.9868C150.615 35.9868 150.957 36.0723 151.212 36.2432C151.47 36.4124 151.656 36.6456 151.769 36.943Z" fill="white"/>
<path d="M153.454 40.1856C153.335 40.1856 153.231 40.1482 153.144 40.0734C153.059 39.9968 153.016 39.906 153.016 39.801C153.016 39.6941 153.059 39.6033 153.144 39.5285C153.231 39.4537 153.335 39.4163 153.454 39.4163C153.576 39.4163 153.68 39.4537 153.765 39.5285C153.85 39.6033 153.893 39.6941 153.893 39.801C153.893 39.8704 153.872 39.9345 153.832 39.9933C153.793 40.052 153.74 40.0992 153.674 40.1348C153.609 40.1687 153.536 40.1856 153.454 40.1856Z" fill="white"/>
</svg>
