<svg width="154" height="49" viewBox="0 0 154 49" fill="none" xmlns="http://www.w3.org/2000/svg">
<path d="M33.8695 16.9275L53.8139 42.3124H13.925L33.8695 16.9275Z" fill="#0E0E0E"/>
<path d="M33.8695 0.944336L44.5374 16.4574H23.2015L33.8695 0.944336Z" fill="#0E0E0E"/>
<path d="M34.4051 9.40599L48.3198 29.1498H20.4903L34.4051 9.40599Z" fill="#0E0E0E"/>
<path d="M19.9444 16.9275L39.8889 42.3124H0L19.9444 16.9275Z" fill="#009900"/>
<path d="M19.9444 0.944336L30.6124 16.4574H9.27649L19.9444 0.944336Z" fill="#009900"/>
<path d="M20.48 9.40599L34.3948 29.1498H6.5653L20.48 9.40599Z" fill="#009900"/>
<path d="M27.4425 16.9275L47.387 42.3124H7.4981L27.4425 16.9275Z" fill="#5B595A"/>
<path d="M27.4425 0.944336L38.1105 16.4574H16.7746L27.4425 0.944336Z" fill="#5B595A"/>
<path d="M27.9781 9.40599L41.8929 29.1498H14.0634L27.9781 9.40599Z" fill="#5B595A"/>
<path d="M70.4929 22.304L68.0657 29.4917H66.5457L64.8254 24.0518L62.9991 29.4917L61.4909 29.5021L59.1697 22.304H60.5954L62.2921 28.1576L64.1302 22.304H65.6384L67.3469 28.1266L69.0554 22.304H70.4929Z" fill="#0E0E0E"/>
<path d="M75.3359 29.5641C74.5739 29.5641 73.8709 29.409 73.2268 29.0987C72.5905 28.7816 72.0838 28.3438 71.7068 27.7853C71.3376 27.2199 71.153 26.5856 71.153 25.8824C71.153 25.1791 71.3376 24.5482 71.7068 23.9898C72.0838 23.4313 72.5905 22.9969 73.2268 22.6867C73.8709 22.3695 74.5739 22.2109 75.3359 22.2109C76.1057 22.2109 76.8087 22.3695 77.445 22.6867C78.0891 22.9969 78.5958 23.4313 78.965 23.9898C79.3341 24.5482 79.5188 25.1791 79.5188 25.8824C79.5188 26.5856 79.3341 27.2199 78.965 27.7853C78.5958 28.3438 78.0891 28.7816 77.445 29.0987C76.8087 29.409 76.1057 29.5641 75.3359 29.5641ZM75.3359 28.5403C75.8779 28.5403 76.361 28.4334 76.7852 28.2197C77.2093 27.999 77.5393 27.6888 77.7749 27.2889C78.0184 26.8821 78.1402 26.4133 78.1402 25.8824C78.1402 25.3515 78.0184 24.8861 77.7749 24.4862C77.5393 24.0863 77.2093 23.7795 76.7852 23.5658C76.361 23.352 75.8779 23.2451 75.3359 23.2451C74.7939 23.2451 74.3108 23.352 73.8866 23.5658C73.4624 23.7795 73.1286 24.0863 72.8851 24.4862C72.6494 24.8861 72.5316 25.3515 72.5316 25.8824C72.5316 26.4133 72.6494 26.8821 72.8851 27.2889C73.1286 27.6888 73.4624 27.999 73.8866 28.2197C74.3108 28.4334 74.7939 28.5403 75.3359 28.5403Z" fill="#0E0E0E"/>
<path d="M84.5756 29.5641C83.8137 29.5641 83.1107 29.409 82.4665 29.0987C81.8303 28.7816 81.3236 28.3438 80.9466 27.7853C80.5774 27.2199 80.3928 26.5856 80.3928 25.8824C80.3928 25.1791 80.5774 24.5482 80.9466 23.9898C81.3236 23.4313 81.8303 22.9969 82.4665 22.6867C83.1107 22.3695 83.8137 22.2109 84.5756 22.2109C85.3455 22.2109 86.0485 22.3695 86.6848 22.6867C87.3289 22.9969 87.8355 23.4313 88.2047 23.9898C88.5739 24.5482 88.7585 25.1791 88.7585 25.8824C88.7585 26.5856 88.5739 27.2199 88.2047 27.7853C87.8355 28.3438 87.3289 28.7816 86.6848 29.0987C86.0485 29.409 85.3455 29.5641 84.5756 29.5641ZM84.5756 28.5403C85.1177 28.5403 85.6007 28.4334 86.0249 28.2197C86.4491 27.999 86.779 27.6888 87.0147 27.2889C87.2582 26.8821 87.3799 26.4133 87.3799 25.8824C87.3799 25.3515 87.2582 24.8861 87.0147 24.4862C86.779 24.0863 86.4491 23.7795 86.0249 23.5658C85.6007 23.352 85.1177 23.2451 84.5756 23.2451C84.0336 23.2451 83.5506 23.352 83.1264 23.5658C82.7022 23.7795 82.3684 24.0863 82.1248 24.4862C81.8892 24.8861 81.7714 25.3515 81.7714 25.8824C81.7714 26.4133 81.8892 26.8821 82.1248 27.2889C82.3684 27.6888 82.7022 27.999 83.1264 28.2197C83.5506 28.4334 84.0336 28.5403 84.5756 28.5403Z" fill="#0E0E0E"/>
<path d="M92.755 22.304C93.6269 22.304 94.3888 22.4523 95.0408 22.7487C95.7007 23.0383 96.2073 23.4589 96.5608 24.0105C96.9221 24.5551 97.1028 25.1929 97.1028 25.9237C97.1028 26.6546 96.9221 27.2889 96.5608 27.8267C96.2073 28.3645 95.7007 28.7781 95.0408 29.0677C94.3888 29.3504 93.6269 29.4917 92.755 29.4917H90.0803V22.304H92.755ZM92.755 28.5299C93.7133 28.5299 94.4478 28.3024 94.9583 27.8473C95.4689 27.3923 95.7242 26.7511 95.7242 25.9237C95.7242 25.0895 95.4689 24.4379 94.9583 23.9691C94.4478 23.5003 93.7133 23.2658 92.755 23.2658H91.4235V28.5299H92.755Z" fill="#0E0E0E"/>
<path d="M98.9761 29.5641C98.7326 29.5641 98.5283 29.4917 98.3634 29.3469C98.1984 29.2022 98.1159 29.0229 98.1159 28.8092C98.1159 28.5954 98.1984 28.4162 98.3634 28.2714C98.5283 28.1266 98.7326 28.0542 98.9761 28.0542C99.2117 28.0542 99.412 28.1266 99.577 28.2714C99.7419 28.4162 99.8244 28.5954 99.8244 28.8092C99.8244 29.0229 99.7419 29.2022 99.577 29.3469C99.412 29.4917 99.2117 29.5641 98.9761 29.5641Z" fill="#0E0E0E"/>
<path d="M102.619 22.304V29.4917H101.276V22.304H102.619Z" fill="#0E0E0E"/>
<path d="M111.111 29.4917H109.768L105.726 24.1242V29.4917H104.383V22.2937H105.726L109.768 27.6509V22.2937H111.111V29.4917Z" fill="#0E0E0E"/>
<path d="M113.417 29.5641C113.173 29.5641 112.969 29.4917 112.804 29.3469C112.639 29.2022 112.557 29.0229 112.557 28.8092C112.557 28.5954 112.639 28.4162 112.804 28.2714C112.969 28.1266 113.173 28.0542 113.417 28.0542C113.652 28.0542 113.853 28.1266 114.018 28.2714C114.183 28.4162 114.265 28.5954 114.265 28.8092C114.265 29.0229 114.183 29.2022 114.018 29.3469C113.853 29.4917 113.652 29.5641 113.417 29.5641Z" fill="#0E0E0E"/>
<path d="M122.775 22.304L119.699 29.4917H118.144L115.057 22.304H116.495L118.922 28.2817L121.361 22.304H122.775Z" fill="#0E0E0E"/>
<path d="M125.241 22.304V29.4917H123.898V22.304H125.241Z" fill="#0E0E0E"/>
<path d="M129.703 29.5641C129.153 29.5641 128.658 29.4814 128.218 29.3159C127.779 29.1436 127.433 28.9022 127.182 28.592C126.93 28.2817 126.805 27.9197 126.805 27.5061H128.242C128.273 27.8163 128.411 28.0714 128.654 28.2714C128.906 28.4713 129.255 28.5713 129.703 28.5713C130.167 28.5713 130.528 28.4748 130.787 28.2817C131.046 28.0818 131.176 27.8267 131.176 27.5164C131.176 27.2751 131.093 27.0786 130.929 26.9269C130.771 26.7752 130.571 26.658 130.328 26.5753C130.092 26.4925 129.762 26.4029 129.338 26.3064C128.804 26.1823 128.368 26.0582 128.03 25.9341C127.7 25.8031 127.417 25.6031 127.182 25.3342C126.946 25.0653 126.828 24.7068 126.828 24.2587C126.828 23.845 126.946 23.483 127.182 23.1728C127.417 22.8625 127.747 22.6246 128.171 22.4592C128.596 22.2937 129.086 22.2109 129.644 22.2109C130.438 22.2109 131.086 22.3868 131.588 22.7384C132.099 23.0831 132.382 23.5589 132.437 24.1656H130.952C130.929 23.9036 130.787 23.6795 130.528 23.4934C130.269 23.3072 129.927 23.2141 129.503 23.2141C129.118 23.2141 128.804 23.3003 128.56 23.4727C128.317 23.645 128.195 23.8933 128.195 24.2173C128.195 24.4379 128.27 24.6206 128.419 24.7654C128.576 24.9033 128.772 25.0136 129.008 25.0964C129.244 25.1791 129.566 25.2687 129.974 25.3653C130.516 25.4963 130.956 25.6273 131.294 25.7583C131.639 25.8893 131.93 26.0927 132.166 26.3684C132.409 26.6373 132.531 26.9993 132.531 27.4544C132.531 27.8198 132.417 28.1645 132.189 28.4886C131.969 28.8126 131.643 29.0746 131.211 29.2745C130.787 29.4676 130.284 29.5641 129.703 29.5641Z" fill="#0E0E0E"/>
<path d="M135.459 22.304V29.4917H134.116V22.304H135.459Z" fill="#0E0E0E"/>
<path d="M140.958 29.5641C140.196 29.5641 139.493 29.409 138.849 29.0987C138.212 28.7816 137.706 28.3438 137.329 27.7853C136.96 27.2199 136.775 26.5856 136.775 25.8824C136.775 25.1791 136.96 24.5482 137.329 23.9898C137.706 23.4313 138.212 22.9969 138.849 22.6867C139.493 22.3695 140.196 22.2109 140.958 22.2109C141.728 22.2109 142.431 22.3695 143.067 22.6867C143.711 22.9969 144.218 23.4313 144.587 23.9898C144.956 24.5482 145.141 25.1791 145.141 25.8824C145.141 26.5856 144.956 27.2199 144.587 27.7853C144.218 28.3438 143.711 28.7816 143.067 29.0987C142.431 29.409 141.728 29.5641 140.958 29.5641ZM140.958 28.5403C141.5 28.5403 141.983 28.4334 142.407 28.2197C142.831 27.999 143.161 27.6888 143.397 27.2889C143.64 26.8821 143.762 26.4133 143.762 25.8824C143.762 25.3515 143.64 24.8861 143.397 24.4862C143.161 24.0863 142.831 23.7795 142.407 23.5658C141.983 23.352 141.5 23.2451 140.958 23.2451C140.416 23.2451 139.933 23.352 139.509 23.5658C139.084 23.7795 138.751 24.0863 138.507 24.4862C138.271 24.8861 138.154 25.3515 138.154 25.8824C138.154 26.4133 138.271 26.8821 138.507 27.2889C138.751 27.6888 139.084 27.999 139.509 28.2197C139.933 28.4334 140.416 28.5403 140.958 28.5403Z" fill="#0E0E0E"/>
<path d="M153.19 29.4917H151.847L147.806 24.1242V29.4917H146.462V22.2937H147.806L151.847 27.6509V22.2937H153.19V29.4917Z" fill="#0E0E0E"/>
<path d="M59.3431 40.7739V35.3038H62.9491V35.7525H59.9122V37.8118H62.6661V38.2605H59.9122V40.7739H59.3431Z" fill="#0E0E0E"/>
<path d="M65.7252 40.8594C65.3214 40.8594 64.9644 40.7695 64.654 40.5896C64.3456 40.4098 64.1042 40.1614 63.9297 39.8444C63.7553 39.5257 63.668 39.158 63.668 38.7413C63.668 38.3211 63.7553 37.9516 63.9297 37.6329C64.1042 37.3123 64.3456 37.0631 64.654 36.885C64.9644 36.7051 65.3214 36.6152 65.7252 36.6152C66.1289 36.6152 66.4849 36.7051 66.7933 36.885C67.1016 37.0648 67.343 37.3141 67.5175 37.6329C67.694 37.9516 67.7823 38.3211 67.7823 38.7413C67.7823 39.158 67.695 39.5257 67.5206 39.8444C67.3461 40.1614 67.1037 40.4098 66.7933 40.5896C66.4849 40.7695 66.1289 40.8594 65.7252 40.8594ZM65.7252 40.424C66.0497 40.424 66.3246 40.3475 66.5498 40.1943C66.775 40.0412 66.9454 39.8373 67.0611 39.5827C67.1787 39.328 67.2375 39.0476 67.2375 38.7413C67.2375 38.4351 67.1787 38.1537 67.0611 37.8973C66.9454 37.6409 66.775 37.4352 66.5498 37.2803C66.3246 37.1254 66.0497 37.0479 65.7252 37.0479C65.4026 37.0479 65.1277 37.1254 64.9005 37.2803C64.6753 37.4352 64.5039 37.6409 64.3862 37.8973C64.2706 38.1537 64.2128 38.4351 64.2128 38.7413C64.2128 39.0476 64.2706 39.328 64.3862 39.5827C64.5039 39.8373 64.6753 40.0412 64.9005 40.1943C65.1257 40.3475 65.4006 40.424 65.7252 40.424Z" fill="#0E0E0E"/>
<path d="M68.9713 40.7739V36.6713H69.4978V37.3017H69.5373C69.6307 37.0951 69.793 36.9286 70.0242 36.8022C70.2575 36.674 70.5213 36.6099 70.8154 36.6099C70.8601 36.6099 70.9098 36.6108 70.9645 36.6126C71.0193 36.6143 71.065 36.6161 71.1015 36.6179V37.1013C71.0771 37.0978 71.0345 37.0924 70.9737 37.0853C70.9128 37.0782 70.8469 37.0746 70.7759 37.0746C70.5324 37.0746 70.3154 37.12 70.1247 37.2109C69.936 37.2999 69.7869 37.4236 69.6773 37.5821C69.5678 37.7406 69.513 37.9213 69.513 38.1243V40.7739H68.9713Z" fill="#0E0E0E"/>
<path d="M76.3591 36.6713V37.0853H74.0616V36.6713H76.3591ZM74.7798 40.7739V36.0703C74.7798 35.8495 74.8376 35.6635 74.9532 35.5121C75.0709 35.3608 75.2241 35.2459 75.4127 35.1676C75.6014 35.0892 75.8012 35.05 76.0122 35.05C76.1542 35.05 76.2719 35.0607 76.3652 35.0821C76.4606 35.1017 76.5356 35.1213 76.5904 35.1408L76.4322 35.5575C76.3916 35.5468 76.3419 35.5344 76.283 35.5201C76.2242 35.5059 76.1502 35.4988 76.0609 35.4988C75.8256 35.4988 75.644 35.5566 75.5162 35.6724C75.3884 35.7881 75.3245 35.9537 75.3245 36.1692L75.3214 40.7739H74.7798Z" fill="#0E0E0E"/>
<path d="M79.0644 40.8594C78.6607 40.8594 78.3036 40.7695 77.9932 40.5896C77.6849 40.4098 77.4435 40.1614 77.269 39.8444C77.0945 39.5257 77.0073 39.158 77.0073 38.7413C77.0073 38.3211 77.0945 37.9516 77.269 37.6329C77.4435 37.3123 77.6849 37.0631 77.9932 36.885C78.3036 36.7051 78.6607 36.6152 79.0644 36.6152C79.4681 36.6152 79.8242 36.7051 80.1325 36.885C80.4409 37.0648 80.6823 37.3141 80.8568 37.6329C81.0333 37.9516 81.1215 38.3211 81.1215 38.7413C81.1215 39.158 81.0343 39.5257 80.8598 39.8444C80.6853 40.1614 80.4429 40.4098 80.1325 40.5896C79.8242 40.7695 79.4681 40.8594 79.0644 40.8594ZM79.0644 40.424C79.389 40.424 79.6639 40.3475 79.8891 40.1943C80.1143 40.0412 80.2847 39.8373 80.4003 39.5827C80.518 39.328 80.5768 39.0476 80.5768 38.7413C80.5768 38.4351 80.518 38.1537 80.4003 37.8973C80.2847 37.6409 80.1143 37.4352 79.8891 37.2803C79.6639 37.1254 79.389 37.0479 79.0644 37.0479C78.7418 37.0479 78.4669 37.1254 78.2397 37.2803C78.0145 37.4352 77.8431 37.6409 77.7254 37.8973C77.6098 38.1537 77.552 38.4351 77.552 38.7413C77.552 39.0476 77.6098 39.328 77.7254 39.5827C77.8431 39.8373 78.0145 40.0412 78.2397 40.1943C78.4649 40.3475 78.7398 40.424 79.0644 40.424Z" fill="#0E0E0E"/>
<path d="M82.3106 40.7739V36.6713H82.837V37.3017H82.8766C82.9699 37.0951 83.1322 36.9286 83.3635 36.8022C83.5968 36.674 83.8605 36.6099 84.1547 36.6099C84.1993 36.6099 84.249 36.6108 84.3038 36.6126C84.3586 36.6143 84.4042 36.6161 84.4407 36.6179V37.1013C84.4164 37.0978 84.3738 37.0924 84.3129 37.0853C84.2521 37.0782 84.1861 37.0746 84.1151 37.0746C83.8717 37.0746 83.6546 37.12 83.4639 37.2109C83.2752 37.2999 83.1261 37.4236 83.0166 37.5821C82.907 37.7406 82.8522 37.9213 82.8522 38.1243V40.7739H82.3106Z" fill="#0E0E0E"/>
<path d="M87.1125 40.8594C86.6764 40.8594 86.299 40.7704 85.9805 40.5923C85.662 40.4125 85.4155 40.1641 85.2411 39.8471C85.0686 39.5284 84.9824 39.1616 84.9824 38.7467C84.9824 38.3336 85.0686 37.9667 85.2411 37.6462C85.4155 37.3239 85.6559 37.072 85.9623 36.8903C86.2706 36.7069 86.6267 36.6152 87.0304 36.6152C87.284 36.6152 87.5284 36.6562 87.7637 36.7381C87.9991 36.8182 88.2101 36.942 88.3967 37.1094C88.5854 37.275 88.7345 37.4842 88.844 37.737C88.9536 37.9881 89.0084 38.2855 89.0084 38.6291V38.8642H85.3567V38.4448H88.4545C88.4545 38.1813 88.3937 37.9445 88.2719 37.7344C88.1522 37.5225 87.9849 37.3551 87.7698 37.2322C87.5568 37.1094 87.3103 37.0479 87.0304 37.0479C86.7342 37.0479 86.4735 37.1174 86.2483 37.2563C86.0231 37.3952 85.8466 37.5786 85.7188 37.8065C85.593 38.0344 85.5291 38.2837 85.5271 38.5544V38.8054C85.5271 39.1313 85.591 39.4162 85.7188 39.6601C85.8486 39.9023 86.0322 40.0902 86.2696 40.2237C86.507 40.3573 86.7879 40.424 87.1125 40.424C87.3337 40.424 87.5274 40.3938 87.6938 40.3332C87.8621 40.2727 88.0031 40.1917 88.1167 40.0902C88.2324 39.9869 88.3196 39.8738 88.3784 39.7509L88.8927 39.8979C88.8217 40.0706 88.7051 40.2299 88.5428 40.376C88.3825 40.522 88.1817 40.6395 87.9402 40.7285C87.7009 40.8158 87.4249 40.8594 87.1125 40.8594Z" fill="#0E0E0E"/>
<path d="M93.3424 37.5714L92.8464 37.6943C92.7977 37.5714 92.7288 37.4601 92.6395 37.3604C92.5502 37.2607 92.4336 37.1815 92.2895 37.1227C92.1475 37.0639 91.971 37.0346 91.76 37.0346C91.4436 37.0346 91.1839 37.1005 90.981 37.2322C90.7781 37.364 90.6767 37.534 90.6767 37.7424C90.6767 37.9187 90.7457 38.062 90.8836 38.1724C91.0236 38.281 91.2387 38.3674 91.5288 38.4315L92.2348 38.5837C92.6263 38.6674 92.9194 38.8001 93.1142 38.9817C93.311 39.1633 93.4094 39.3913 93.4094 39.6655C93.4094 39.897 93.3363 40.1026 93.1903 40.2825C93.0442 40.4623 92.8403 40.6039 92.5786 40.7072C92.319 40.8087 92.0177 40.8594 91.6748 40.8594C91.2184 40.8594 90.842 40.7695 90.5459 40.5896C90.2497 40.408 90.06 40.1463 89.9768 39.8044L90.4972 39.6922C90.5641 39.9361 90.695 40.1204 90.8897 40.2451C91.0865 40.3697 91.3452 40.432 91.6657 40.432C92.0248 40.432 92.3118 40.3617 92.5269 40.221C92.7419 40.0786 92.8495 39.9005 92.8495 39.6869C92.8495 39.5212 92.7866 39.3824 92.6608 39.2702C92.535 39.1562 92.3443 39.0725 92.0887 39.0191L91.3249 38.8588C90.9191 38.7734 90.6189 38.638 90.4241 38.4529C90.2294 38.2677 90.132 38.038 90.132 37.7637C90.132 37.5376 90.202 37.3391 90.342 37.1681C90.482 36.9954 90.6747 36.8601 90.9202 36.7621C91.1656 36.6642 91.4456 36.6152 91.76 36.6152C92.1881 36.6152 92.5299 36.7007 92.7855 36.8716C93.0432 37.0408 93.2288 37.2741 93.3424 37.5714Z" fill="#0E0E0E"/>
<path d="M96.4365 36.6713V37.0853H94.2059V36.6713H96.4365ZM94.9028 35.6884H95.4475V39.7029C95.4475 39.8738 95.4809 40.0083 95.5479 40.1062C95.6148 40.2023 95.7021 40.2709 95.8096 40.3119C95.9171 40.351 96.0317 40.3706 96.1535 40.3706C96.2245 40.3706 96.2853 40.3671 96.336 40.3599C96.3868 40.351 96.4314 40.3421 96.4699 40.3332L96.5856 40.7632C96.5328 40.7811 96.4679 40.7971 96.3908 40.8113C96.3137 40.8274 96.2184 40.8354 96.1048 40.8354C95.906 40.8354 95.7142 40.7971 95.5296 40.7205C95.347 40.6439 95.1969 40.53 95.0793 40.3786C94.9616 40.2273 94.9028 40.0394 94.9028 39.8151V35.6884Z" fill="#0E0E0E"/>
<path d="M100.077 42.3124V36.6713H100.603V37.4539H100.667C100.732 37.331 100.821 37.2055 100.935 37.0773C101.048 36.9473 101.199 36.8378 101.385 36.7488C101.574 36.6597 101.811 36.6152 102.097 36.6152C102.483 36.6152 102.82 36.7043 103.108 36.8823C103.398 37.0586 103.623 37.3061 103.783 37.6249C103.945 37.9418 104.027 38.3113 104.027 38.7333C104.027 39.1571 103.945 39.5284 103.783 39.8471C103.623 40.1658 103.398 40.4142 103.108 40.5923C102.82 40.7704 102.485 40.8594 102.103 40.8594C101.821 40.8594 101.585 40.8149 101.394 40.7259C101.206 40.6368 101.053 40.5273 100.935 40.3973C100.819 40.2656 100.73 40.1374 100.667 40.0127H100.618V42.3124H100.077ZM100.612 38.7253C100.612 39.0565 100.668 39.3503 100.78 39.6067C100.893 39.8614 101.056 40.0617 101.267 40.2077C101.48 40.3519 101.737 40.424 102.039 40.424C102.35 40.424 102.612 40.3493 102.825 40.1997C103.04 40.0483 103.203 39.8444 103.315 39.588C103.428 39.3316 103.485 39.044 103.485 38.7253C103.485 38.4101 103.429 38.1261 103.318 37.8733C103.208 37.6204 103.046 37.4201 102.831 37.2723C102.616 37.1227 102.352 37.0479 102.039 37.0479C101.735 37.0479 101.477 37.12 101.264 37.2643C101.05 37.4067 100.888 37.6044 100.777 37.8572C100.667 38.1083 100.612 38.3977 100.612 38.7253Z" fill="#0E0E0E"/>
<path d="M105.215 40.7739V36.6713H105.741V37.3017H105.781C105.874 37.0951 106.037 36.9286 106.268 36.8022C106.501 36.674 106.765 36.6099 107.059 36.6099C107.104 36.6099 107.153 36.6108 107.208 36.6126C107.263 36.6143 107.309 36.6161 107.345 36.6179V37.1013C107.321 37.0978 107.278 37.0924 107.217 37.0853C107.156 37.0782 107.09 37.0746 107.019 37.0746C106.776 37.0746 106.559 37.12 106.368 37.2109C106.18 37.2999 106.03 37.4236 105.921 37.5821C105.811 37.7406 105.757 37.9213 105.757 38.1243V40.7739H105.215Z" fill="#0E0E0E"/>
<path d="M109.944 40.8594C109.54 40.8594 109.183 40.7695 108.873 40.5896C108.564 40.4098 108.323 40.1614 108.148 39.8444C107.974 39.5257 107.887 39.158 107.887 38.7413C107.887 38.3211 107.974 37.9516 108.148 37.6329C108.323 37.3123 108.564 37.0631 108.873 36.885C109.183 36.7051 109.54 36.6152 109.944 36.6152C110.348 36.6152 110.704 36.7051 111.012 36.885C111.32 37.0648 111.562 37.3141 111.736 37.6329C111.913 37.9516 112.001 38.3211 112.001 38.7413C112.001 39.158 111.914 39.5257 111.739 39.8444C111.565 40.1614 111.322 40.4098 111.012 40.5896C110.704 40.7695 110.348 40.8594 109.944 40.8594ZM109.944 40.424C110.268 40.424 110.543 40.3475 110.769 40.1943C110.994 40.0412 111.164 39.8373 111.28 39.5827C111.397 39.328 111.456 39.0476 111.456 38.7413C111.456 38.4351 111.397 38.1537 111.28 37.8973C111.164 37.6409 110.994 37.4352 110.769 37.2803C110.543 37.1254 110.268 37.0479 109.944 37.0479C109.621 37.0479 109.346 37.1254 109.119 37.2803C108.894 37.4352 108.723 37.6409 108.605 37.8973C108.489 38.1537 108.431 38.4351 108.431 38.7413C108.431 39.0476 108.489 39.328 108.605 39.5827C108.723 39.8373 108.894 40.0412 109.119 40.1943C109.344 40.3475 109.619 40.424 109.944 40.424Z" fill="#0E0E0E"/>
<path d="M115.113 36.6713V37.0853H112.816V36.6713H115.113ZM113.534 40.7739V36.0703C113.534 35.8495 113.592 35.6635 113.707 35.5121C113.825 35.3608 113.978 35.2459 114.167 35.1676C114.356 35.0892 114.555 35.05 114.766 35.05C114.908 35.05 115.026 35.0607 115.119 35.0821C115.215 35.1017 115.29 35.1213 115.345 35.1408L115.186 35.5575C115.146 35.5468 115.096 35.5344 115.037 35.5201C114.978 35.5059 114.904 35.4988 114.815 35.4988C114.58 35.4988 114.398 35.5566 114.27 35.6724C114.142 35.7881 114.079 35.9537 114.079 36.1692L114.076 40.7739H113.534Z" fill="#0E0E0E"/>
<path d="M117.892 40.8594C117.455 40.8594 117.078 40.7704 116.76 40.5923C116.441 40.4125 116.195 40.1641 116.02 39.8471C115.848 39.5284 115.761 39.1616 115.761 38.7467C115.761 38.3336 115.848 37.9667 116.02 37.6462C116.195 37.3239 116.435 37.072 116.741 36.8903C117.05 36.7069 117.406 36.6152 117.809 36.6152C118.063 36.6152 118.307 36.6562 118.543 36.7381C118.778 36.8182 118.989 36.942 119.176 37.1094C119.364 37.275 119.513 37.4842 119.623 37.737C119.733 37.9881 119.787 38.2855 119.787 38.6291V38.8642H116.136V38.4448H119.234C119.234 38.1813 119.173 37.9445 119.051 37.7344C118.931 37.5225 118.764 37.3551 118.549 37.2322C118.336 37.1094 118.089 37.0479 117.809 37.0479C117.513 37.0479 117.253 37.1174 117.027 37.2563C116.802 37.3952 116.626 37.5786 116.498 37.8065C116.372 38.0344 116.308 38.2837 116.306 38.5544V38.8054C116.306 39.1313 116.37 39.4162 116.498 39.6601C116.628 39.9023 116.811 40.0902 117.049 40.2237C117.286 40.3573 117.567 40.424 117.892 40.424C118.113 40.424 118.306 40.3938 118.473 40.3332C118.641 40.2727 118.782 40.1917 118.896 40.0902C119.011 39.9869 119.099 39.8738 119.157 39.7509L119.672 39.8979C119.601 40.0706 119.484 40.2299 119.322 40.376C119.162 40.522 118.961 40.6395 118.719 40.7285C118.48 40.8158 118.204 40.8594 117.892 40.8594Z" fill="#0E0E0E"/>
<path d="M124.121 37.5714L123.625 37.6943C123.577 37.5714 123.508 37.4601 123.418 37.3604C123.329 37.2607 123.213 37.1815 123.069 37.1227C122.927 37.0639 122.75 37.0346 122.539 37.0346C122.223 37.0346 121.963 37.1005 121.76 37.2322C121.557 37.364 121.456 37.534 121.456 37.7424C121.456 37.9187 121.525 38.062 121.663 38.1724C121.803 38.281 122.018 38.3674 122.308 38.4315L123.014 38.5837C123.405 38.6674 123.698 38.8001 123.893 38.9817C124.09 39.1633 124.188 39.3913 124.188 39.6655C124.188 39.897 124.115 40.1026 123.969 40.2825C123.823 40.4623 123.619 40.6039 123.358 40.7072C123.098 40.8087 122.797 40.8594 122.454 40.8594C121.997 40.8594 121.621 40.7695 121.325 40.5896C121.029 40.408 120.839 40.1463 120.756 39.8044L121.276 39.6922C121.343 39.9361 121.474 40.1204 121.669 40.2451C121.866 40.3697 122.124 40.432 122.445 40.432C122.804 40.432 123.091 40.3617 123.306 40.221C123.521 40.0786 123.628 39.9005 123.628 39.6869C123.628 39.5212 123.566 39.3824 123.44 39.2702C123.314 39.1562 123.123 39.0725 122.868 39.0191L122.104 38.8588C121.698 38.7734 121.398 38.638 121.203 38.4529C121.008 38.2677 120.911 38.038 120.911 37.7637C120.911 37.5376 120.981 37.3391 121.121 37.1681C121.261 36.9954 121.454 36.8601 121.699 36.7621C121.945 36.6642 122.225 36.6152 122.539 36.6152C122.967 36.6152 123.309 36.7007 123.565 36.8716C123.822 37.0408 124.008 37.2741 124.121 37.5714Z" fill="#0E0E0E"/>
<path d="M128.515 37.5714L128.019 37.6943C127.97 37.5714 127.901 37.4601 127.812 37.3604C127.723 37.2607 127.606 37.1815 127.462 37.1227C127.32 37.0639 127.143 37.0346 126.932 37.0346C126.616 37.0346 126.356 37.1005 126.153 37.2322C125.951 37.364 125.849 37.534 125.849 37.7424C125.849 37.9187 125.918 38.062 126.056 38.1724C126.196 38.281 126.411 38.3674 126.701 38.4315L127.407 38.5837C127.799 38.6674 128.092 38.8001 128.287 38.9817C128.483 39.1633 128.582 39.3913 128.582 39.6655C128.582 39.897 128.509 40.1026 128.363 40.2825C128.217 40.4623 128.013 40.6039 127.751 40.7072C127.491 40.8087 127.19 40.8594 126.847 40.8594C126.391 40.8594 126.014 40.7695 125.718 40.5896C125.422 40.408 125.232 40.1463 125.149 39.8044L125.67 39.6922C125.737 39.9361 125.867 40.1204 126.062 40.2451C126.259 40.3697 126.518 40.432 126.838 40.432C127.197 40.432 127.484 40.3617 127.699 40.221C127.914 40.0786 128.022 39.9005 128.022 39.6869C128.022 39.5212 127.959 39.3824 127.833 39.2702C127.707 39.1562 127.517 39.0725 127.261 39.0191L126.497 38.8588C126.092 38.7734 125.791 38.638 125.597 38.4529C125.402 38.2677 125.304 38.038 125.304 37.7637C125.304 37.5376 125.374 37.3391 125.514 37.1681C125.654 36.9954 125.847 36.8601 126.093 36.7621C126.338 36.6642 126.618 36.6152 126.932 36.6152C127.361 36.6152 127.702 36.7007 127.958 36.8716C128.216 37.0408 128.401 37.2741 128.515 37.5714Z" fill="#0E0E0E"/>
<path d="M129.774 40.7739V36.6713H130.319V40.7739H129.774ZM130.051 35.9662C129.939 35.9662 129.844 35.9332 129.765 35.8674C129.686 35.7997 129.646 35.7187 129.646 35.6243C129.646 35.5299 129.686 35.4498 129.765 35.3839C129.844 35.3162 129.939 35.2824 130.051 35.2824C130.162 35.2824 130.258 35.3162 130.337 35.3839C130.416 35.4498 130.456 35.5299 130.456 35.6243C130.456 35.7187 130.416 35.7997 130.337 35.8674C130.258 35.9332 130.162 35.9662 130.051 35.9662Z" fill="#0E0E0E"/>
<path d="M133.568 40.8594C133.164 40.8594 132.807 40.7695 132.497 40.5896C132.188 40.4098 131.947 40.1614 131.772 39.8444C131.598 39.5257 131.511 39.158 131.511 38.7413C131.511 38.3211 131.598 37.9516 131.772 37.6329C131.947 37.3123 132.188 37.0631 132.497 36.885C132.807 36.7051 133.164 36.6152 133.568 36.6152C133.972 36.6152 134.328 36.7051 134.636 36.885C134.944 37.0648 135.186 37.3141 135.36 37.6329C135.537 37.9516 135.625 38.3211 135.625 38.7413C135.625 39.158 135.538 39.5257 135.363 39.8444C135.189 40.1614 134.946 40.4098 134.636 40.5896C134.328 40.7695 133.972 40.8594 133.568 40.8594ZM133.568 40.424C133.892 40.424 134.167 40.3475 134.393 40.1943C134.618 40.0412 134.788 39.8373 134.904 39.5827C135.021 39.328 135.08 39.0476 135.08 38.7413C135.08 38.4351 135.021 38.1537 134.904 37.8973C134.788 37.6409 134.618 37.4352 134.393 37.2803C134.167 37.1254 133.892 37.0479 133.568 37.0479C133.245 37.0479 132.97 37.1254 132.743 37.2803C132.518 37.4352 132.347 37.6409 132.229 37.8973C132.113 38.1537 132.055 38.4351 132.055 38.7413C132.055 39.0476 132.113 39.328 132.229 39.5827C132.347 39.8373 132.518 40.0412 132.743 40.1943C132.968 40.3475 133.243 40.424 133.568 40.424Z" fill="#0E0E0E"/>
<path d="M137.356 38.2098V40.7739H136.814V36.6713H137.34V37.315H137.389C137.499 37.1049 137.669 36.9366 137.9 36.8102C138.134 36.682 138.422 36.6179 138.765 36.6179C139.079 36.6179 139.355 36.6758 139.592 36.7915C139.832 36.9055 140.017 37.0737 140.149 37.2963C140.283 37.5189 140.35 37.7922 140.35 38.1163V40.7739H139.808V38.1457C139.808 37.8092 139.701 37.5429 139.486 37.3471C139.273 37.1512 138.987 37.0533 138.628 37.0533C138.382 37.0533 138.164 37.0996 137.973 37.1922C137.783 37.2847 137.632 37.4183 137.52 37.5928C137.41 37.7655 137.356 37.9712 137.356 38.2098Z" fill="#0E0E0E"/>
<path d="M143.082 40.8674C142.8 40.8674 142.542 40.8193 142.309 40.7232C142.076 40.6253 141.89 40.4846 141.752 40.3012C141.614 40.116 141.545 39.8916 141.545 39.6281C141.545 39.4251 141.589 39.2542 141.676 39.1153C141.763 38.9764 141.887 38.8624 142.047 38.7734C142.208 38.6843 142.397 38.614 142.616 38.5624C142.835 38.5107 143.077 38.4707 143.341 38.4422C143.602 38.4137 143.823 38.3888 144.004 38.3674C144.187 38.346 144.326 38.3122 144.421 38.2659C144.516 38.2196 144.564 38.1448 144.564 38.0415V37.9454C144.564 37.6658 144.469 37.4459 144.278 37.2856C144.089 37.1236 143.817 37.0426 143.462 37.0426C143.126 37.0426 142.851 37.1076 142.638 37.2376C142.427 37.3675 142.279 37.5207 142.193 37.697L141.679 37.534C141.785 37.3097 141.931 37.1307 142.117 36.9972C142.304 36.8618 142.513 36.7648 142.744 36.706C142.975 36.6455 143.21 36.6152 143.447 36.6152C143.626 36.6152 143.811 36.6357 144.004 36.6767C144.199 36.7176 144.379 36.7888 144.546 36.8903C144.712 36.9901 144.847 37.1298 144.95 37.3097C145.054 37.4877 145.106 37.7139 145.106 37.9881V40.7739H144.564V40.1249H144.53C144.466 40.246 144.369 40.3635 144.241 40.4775C144.114 40.5914 143.953 40.6849 143.761 40.7579C143.568 40.8309 143.342 40.8674 143.082 40.8674ZM143.155 40.432C143.443 40.432 143.693 40.376 143.904 40.2638C144.115 40.1516 144.277 40.0029 144.39 39.8177C144.506 39.6308 144.564 39.4251 144.564 39.2007V38.6078C144.523 38.6416 144.455 38.6719 144.36 38.6986C144.267 38.7253 144.158 38.7493 144.034 38.7707C143.913 38.7903 143.791 38.8072 143.669 38.8215C143.548 38.8357 143.438 38.8482 143.341 38.8588C143.077 38.8873 142.852 38.9319 142.665 38.9924C142.478 39.0529 142.335 39.1366 142.236 39.2435C142.137 39.3485 142.087 39.4839 142.087 39.6495C142.087 39.8987 142.188 40.0919 142.391 40.2291C142.594 40.3644 142.849 40.432 143.155 40.432Z" fill="#0E0E0E"/>
<path d="M147.088 35.3038V40.7739H146.546V35.3038H147.088Z" fill="#0E0E0E"/>
<path d="M151.662 37.5714L151.166 37.6943C151.117 37.5714 151.048 37.4601 150.959 37.3604C150.87 37.2607 150.753 37.1815 150.609 37.1227C150.467 37.0639 150.29 37.0346 150.079 37.0346C149.763 37.0346 149.503 37.1005 149.3 37.2322C149.098 37.364 148.996 37.534 148.996 37.7424C148.996 37.9187 149.065 38.062 149.203 38.1724C149.343 38.281 149.558 38.3674 149.848 38.4315L150.554 38.5837C150.946 38.6674 151.239 38.8001 151.434 38.9817C151.63 39.1633 151.729 39.3913 151.729 39.6655C151.729 39.897 151.656 40.1026 151.51 40.2825C151.364 40.4623 151.16 40.6039 150.898 40.7072C150.638 40.8087 150.337 40.8594 149.994 40.8594C149.538 40.8594 149.161 40.7695 148.865 40.5896C148.569 40.408 148.379 40.1463 148.296 39.8044L148.817 39.6922C148.884 39.9361 149.014 40.1204 149.209 40.2451C149.406 40.3697 149.665 40.432 149.985 40.432C150.344 40.432 150.631 40.3617 150.846 40.221C151.061 40.0786 151.169 39.9005 151.169 39.6869C151.169 39.5212 151.106 39.3824 150.98 39.2702C150.854 39.1562 150.664 39.0725 150.408 39.0191L149.644 38.8588C149.239 38.7734 148.938 38.638 148.744 38.4529C148.549 38.2677 148.451 38.038 148.451 37.7637C148.451 37.5376 148.521 37.3391 148.661 37.1681C148.801 36.9954 148.994 36.8601 149.24 36.7621C149.485 36.6642 149.765 36.6152 150.079 36.6152C150.508 36.6152 150.849 36.7007 151.105 36.8716C151.363 37.0408 151.548 37.2741 151.662 37.5714Z" fill="#0E0E0E"/>
<path d="M153.347 40.814C153.227 40.814 153.124 40.7766 153.037 40.7018C152.951 40.6253 152.909 40.5344 152.909 40.4294C152.909 40.3225 152.951 40.2317 153.037 40.1569C153.124 40.0822 153.227 40.0448 153.347 40.0448C153.469 40.0448 153.572 40.0822 153.657 40.1569C153.743 40.2317 153.785 40.3225 153.785 40.4294C153.785 40.4988 153.765 40.5629 153.724 40.6217C153.686 40.6805 153.633 40.7276 153.566 40.7632C153.501 40.7971 153.428 40.814 153.347 40.814Z" fill="#0E0E0E"/>
</svg>
