<svg width="57" height="57" viewBox="0 0 57 57" fill="none" xmlns="http://www.w3.org/2000/svg">
<rect x="0.5" y="0.570435" width="56" height="56" rx="28" fill="#009900" fill-opacity="0.3"/>
<path fill-rule="evenodd" clip-rule="evenodd" d="M33.8269 23.7494C33.8269 20.8894 31.4419 18.5704 28.4999 18.5704C25.5579 18.5704 23.1729 20.8894 23.1729 23.7494C23.1729 26.7724 26.3989 30.0194 27.8299 31.3114C28.2129 31.6564 28.7869 31.6564 29.1699 31.3114C30.6009 30.0194 33.8269 26.7724 33.8269 23.7494Z" stroke="#009900" stroke-width="1.5" stroke-linecap="round" stroke-linejoin="round"/>
<path d="M29.7533 22.651C30.4457 23.3344 30.4457 24.4425 29.7533 25.1259C29.0609 25.8093 27.9383 25.8093 27.2459 25.1259C26.5535 24.4424 26.5535 23.3344 27.2459 22.651C27.9383 21.9676 29.0609 21.9676 29.7533 22.651" stroke="#009900" stroke-width="1.5" stroke-linecap="round" stroke-linejoin="round"/>
<path d="M24.056 26.7474L19.5 28.5704V36.5704L24.5 34.5704L28.5 37.5704L32.5 34.5704L37.5 36.5704V28.5704L32.944 26.7474" stroke="#009900" stroke-width="1.5" stroke-linecap="round" stroke-linejoin="round"/>
</svg>
