<svg width="24" height="25" viewBox="0 0 24 25" fill="none" xmlns="http://www.w3.org/2000/svg">
<path fill-rule="evenodd" clip-rule="evenodd" d="M7.67383 8.43345V17.4565C7.67383 18.1135 8.38283 18.5265 8.95383 18.2015L16.8928 13.6905C17.4708 13.3625 17.4708 12.5285 16.8928 12.2005L8.95383 7.68745C8.38283 7.36345 7.67383 7.77645 7.67383 8.43345V8.43345Z" stroke="white" stroke-width="1.5" stroke-linecap="round" stroke-linejoin="round"/>
<path d="M7.87012 17.9943L14.1101 10.6143" stroke="white" stroke-width="1.5" stroke-linecap="round" stroke-linejoin="round"/>
<path d="M7.87012 7.89453L14.1101 15.2745" stroke="white" stroke-width="1.5" stroke-linecap="round" stroke-linejoin="round"/>
<path fill-rule="evenodd" clip-rule="evenodd" d="M7.5 3.94434H16.504C18.987 3.94434 21 5.95734 21 8.44034V17.4493C21 19.9313 18.987 21.9443 16.504 21.9443H7.496C5.013 21.9443 3 19.9313 3 17.4483V8.44434C3 5.95934 5.015 3.94434 7.5 3.94434V3.94434Z" stroke="white" stroke-width="1.5" stroke-linecap="round" stroke-linejoin="round"/>
</svg>
