<svg width="56" height="56" viewBox="0 0 56 56" fill="none" xmlns="http://www.w3.org/2000/svg">
<rect x="0.5" y="0.5" width="55" height="55" rx="27.5" fill="black" fill-opacity="0.08"/>
<rect x="0.5" y="0.5" width="55" height="55" rx="27.5" stroke="#BEBEBE"/>
<path fill-rule="evenodd" clip-rule="evenodd" d="M28.0001 37.0037C32.9727 37.0037 37.0038 32.9726 37.0038 28C37.0038 23.0273 32.9727 18.9962 28.0001 18.9962C23.0275 18.9962 18.9963 23.0273 18.9963 28C18.9963 32.9726 23.0275 37.0037 28.0001 37.0037V37.0037Z" stroke="black" stroke-width="1.5" stroke-linecap="round" stroke-linejoin="round"/>
<path d="M21.5603 21.7113L23.8467 23.9983" stroke="black" stroke-width="1.5" stroke-linecap="round" stroke-linejoin="round"/>
<path d="M31.8474 32.0016L34.2861 34.441" stroke="black" stroke-width="1.5" stroke-linecap="round" stroke-linejoin="round"/>
<path fill-rule="evenodd" clip-rule="evenodd" d="M24.2647 31.1026L25.816 26.4487C25.9156 26.1499 26.15 25.9155 26.4487 25.8159L31.1027 24.2646C31.2824 24.2047 31.4806 24.2515 31.6145 24.3855C31.7485 24.5194 31.7953 24.7176 31.7354 24.8973L30.1841 29.5513C30.0845 29.85 29.8501 30.0844 29.5513 30.184L24.8974 31.7353C24.7177 31.7952 24.5195 31.7484 24.3855 31.6145C24.2516 31.4805 24.2048 31.2823 24.2647 31.1026Z" stroke="black" stroke-width="1.5" stroke-linecap="round" stroke-linejoin="round"/>
</svg>
