<svg width="25" height="24" viewBox="0 0 25 24" fill="none" xmlns="http://www.w3.org/2000/svg">
<path d="M13.7676 19H5.89258C4.78758 19 3.89258 18.105 3.89258 17V5C3.89258 3.895 4.78758 3 5.89258 3H14.8926C15.9976 3 16.8926 3.895 16.8926 5" stroke="#323232" stroke-width="1.5" stroke-linecap="round" stroke-linejoin="round"/>
<path d="M16.8926 5V8" stroke="#323232" stroke-width="1.5" stroke-linecap="round" stroke-linejoin="round"/>
<path d="M10.3916 15.833C10.2996 15.833 10.2246 15.908 10.2256 16C10.2256 16.092 10.3006 16.167 10.3926 16.167C10.4846 16.167 10.5596 16.092 10.5596 16C10.5596 15.908 10.4846 15.833 10.3916 15.833" stroke="#323232" stroke-width="1.5" stroke-linecap="round" stroke-linejoin="round"/>
<path fill-rule="evenodd" clip-rule="evenodd" d="M15.7676 8H19.8926C20.9976 8 21.8926 8.895 21.8926 10V19C21.8926 20.105 20.9976 21 19.8926 21H15.7676C14.6626 21 13.7676 20.105 13.7676 19V10C13.7676 8.895 14.6626 8 15.7676 8Z" stroke="#323232" stroke-width="1.5" stroke-linecap="round" stroke-linejoin="round"/>
<path d="M16.9521 18.75H18.7021" stroke="#323232" stroke-width="1.5" stroke-linecap="round" stroke-linejoin="round"/>
</svg>
