<svg width="25" height="25" viewBox="0 0 25 25" fill="none" xmlns="http://www.w3.org/2000/svg">
<path fill-rule="evenodd" clip-rule="evenodd" d="M8.00088 3.80762H17.0099C19.4919 3.80762 21.5049 5.81962 21.5049 8.30362V17.3126C21.5049 19.7946 19.4929 21.8076 17.0089 21.8076H8.00088C5.51788 21.8076 3.50488 19.7956 3.50488 17.3116V8.30362C3.50488 5.82062 5.51688 3.80762 8.00088 3.80762V3.80762Z" stroke="black" stroke-width="1.5" stroke-linecap="round" stroke-linejoin="round"/>
<path d="M17.4536 7.52041C17.2676 7.52141 17.1166 7.67241 17.1166 7.85841C17.1166 8.04441 17.2686 8.19541 17.4546 8.19541C17.6406 8.19541 17.7916 8.04441 17.7916 7.85841C17.7926 7.67141 17.6406 7.52041 17.4536 7.52041" stroke="black" stroke-width="1.5" stroke-linecap="round" stroke-linejoin="round"/>
<path d="M15.0509 10.2619C16.4568 11.6678 16.4568 13.9472 15.0509 15.3531C13.645 16.759 11.3656 16.759 9.95969 15.3531C8.5538 13.9472 8.5538 11.6678 9.95969 10.2619C11.3656 8.85605 13.645 8.85605 15.0509 10.2619" stroke="black" stroke-width="1.5" stroke-linecap="round" stroke-linejoin="round"/>
</svg>
