<svg width="25" height="25" viewBox="0 0 25 25" fill="none" xmlns="http://www.w3.org/2000/svg">
<path fill-rule="evenodd" clip-rule="evenodd" d="M8.00488 3.80762H17.0089C19.4919 3.80762 21.5049 5.82062 21.5049 8.30362V17.3126C21.5049 19.7946 19.4919 21.8076 17.0089 21.8076H8.00088C5.51788 21.8076 3.50488 19.7946 3.50488 17.3116V8.30762C3.50488 5.82262 5.51988 3.80762 8.00488 3.80762V3.80762Z" stroke="black" stroke-width="1.5" stroke-linecap="round" stroke-linejoin="round"/>
<path d="M8.625 11.9077V17.3077" stroke="black" stroke-width="1.5" stroke-linecap="round" stroke-linejoin="round"/>
<path d="M12.2236 17.3077V14.1577C12.2236 12.9147 13.2306 11.9077 14.4736 11.9077V11.9077C15.7166 11.9077 16.7236 12.9147 16.7236 14.1577V17.3077" stroke="black" stroke-width="1.5" stroke-linecap="round" stroke-linejoin="round"/>
<path d="M8.62303 8.64561C8.49903 8.64561 8.39803 8.74661 8.39903 8.87061C8.39903 8.99461 8.50003 9.09561 8.62403 9.09561C8.74803 9.09561 8.84903 8.99461 8.84903 8.87061C8.84903 8.74561 8.74803 8.64561 8.62303 8.64561" stroke="black" stroke-width="1.5" stroke-linecap="round" stroke-linejoin="round"/>
</svg>
